<svg width="33" height="37" viewBox="0 0 33 37" fill="none" xmlns="http://www.w3.org/2000/svg">
<path fill-rule="evenodd" clip-rule="evenodd" d="M16.8247 0.852417C16.1811 0.852417 15.618 1.25666 14.4919 2.06513L9.52716 5.62946C9.34772 5.75828 9.258 5.82269 9.16195 5.87674C9.06589 5.93079 8.96427 5.97405 8.76102 6.06057L3.20051 8.4275C1.87679 8.99096 1.21493 9.27269 0.88083 9.84697C0.546732 10.4212 0.628942 11.1359 0.793362 12.5651L1.45857 18.3474C1.48483 18.5757 1.49797 18.6899 1.49797 18.8046C1.49797 18.9192 1.48483 19.0334 1.45857 19.2617L0.793362 25.044C0.628942 26.4733 0.546732 27.1879 0.88083 27.7621C1.21493 28.3364 1.87679 28.6181 3.20051 29.1816L8.76102 31.5485L8.76107 31.5486C8.96428 31.6351 9.0659 31.6783 9.16195 31.7324C9.258 31.7864 9.34772 31.8508 9.52716 31.9797L14.4919 35.544C15.618 36.3525 16.1811 36.7567 16.8247 36.7567C17.4683 36.7567 18.0313 36.3525 19.1575 35.544L24.1222 31.9797C24.3017 31.8508 24.3914 31.7864 24.4874 31.7324C24.5835 31.6783 24.6851 31.6351 24.8883 31.5485L24.8883 31.5485L30.4489 29.1816C31.7726 28.6181 32.4344 28.3364 32.7685 27.7621C33.1026 27.1879 33.0204 26.4733 32.856 25.044L32.1908 19.2617L32.1908 19.2616C32.1645 19.0334 32.1514 18.9192 32.1514 18.8046C32.1514 18.6899 32.1645 18.5757 32.1908 18.3475L32.1908 18.3474L32.856 12.5651C33.0204 11.1359 33.1026 10.4212 32.7685 9.84697C32.4344 9.27269 31.7726 8.99096 30.4489 8.4275L24.8883 6.06057C24.6851 5.97405 24.5835 5.93079 24.4874 5.87674C24.3914 5.82269 24.3017 5.75828 24.1222 5.62946L19.1575 2.06513C18.0313 1.25666 17.4683 0.852417 16.8247 0.852417ZM16.8247 25.5006C20.6215 25.5006 23.6994 22.5027 23.6994 18.8046C23.6994 15.1064 20.6215 12.1085 16.8247 12.1085C13.0278 12.1085 9.9499 15.1064 9.9499 18.8046C9.9499 22.5027 13.0278 25.5006 16.8247 25.5006Z" fill="#222222"/>
</svg>
