<svg width="290" height="343" viewBox="0 0 290 343" fill="none" xmlns="http://www.w3.org/2000/svg">
<rect x="41.4286" width="248.571" height="132.976" rx="15" fill="#385ADC"/>
<ellipse cx="9.28571" cy="9.19512" rx="9.28571" ry="9.19512" fill="#385ADC"/>
<rect x="7.14288" y="24.0488" width="2.85714" height="108.927" rx="1.42857" fill="#385ADC"/>
<rect x="41.4286" y="145.707" width="171.429" height="16.9756" rx="8.4878" fill="#D9D9D9"/>
<rect x="41.4286" y="168.341" width="97.1429" height="16.9756" rx="8.4878" fill="#D9D9D9"/>
<rect x="238.571" y="145.707" width="51.4286" height="16.9756" rx="8.4878" fill="#D9D9D9"/>
<ellipse cx="9.28571" cy="153.488" rx="9.28571" ry="9.19512" fill="#D9D9D9"/>
<rect x="7.14288" y="168.341" width="2.85714" height="16.9756" rx="1.42857" fill="#D9D9D9"/>
<rect x="41.4286" y="198.049" width="171.429" height="16.9756" rx="8.4878" fill="#D9D9D9"/>
<rect x="41.4286" y="220.683" width="97.1429" height="16.9756" rx="8.4878" fill="#D9D9D9"/>
<rect x="238.571" y="198.049" width="51.4286" height="16.9756" rx="8.4878" fill="#D9D9D9"/>
<ellipse cx="9.28571" cy="205.829" rx="9.28571" ry="9.19512" fill="#D9D9D9"/>
<rect x="7.14288" y="220.683" width="2.85714" height="16.9756" rx="1.42857" fill="#D9D9D9"/>
<rect x="41.4286" y="250.39" width="171.429" height="16.9756" rx="8.4878" fill="#D9D9D9"/>
<rect x="41.4286" y="273.024" width="97.1429" height="16.9756" rx="8.4878" fill="#D9D9D9"/>
<rect x="238.571" y="250.39" width="51.4286" height="16.9756" rx="8.4878" fill="#D9D9D9"/>
<ellipse cx="9.28571" cy="258.171" rx="9.28571" ry="9.19512" fill="#D9D9D9"/>
<rect x="7.14288" y="273.024" width="2.85714" height="16.9756" rx="1.42857" fill="#D9D9D9"/>
<rect x="41.4286" y="302.415" width="171.429" height="16.9756" rx="8.4878" fill="#D9D9D9"/>
<rect x="41.4286" y="325.049" width="97.1429" height="16.9756" rx="8.4878" fill="#D9D9D9"/>
<rect x="238.571" y="302.415" width="51.4286" height="16.9756" rx="8.4878" fill="#D9D9D9"/>
<ellipse cx="9.28571" cy="310.195" rx="9.28571" ry="9.19512" fill="#D9D9D9"/>
<rect x="7.14288" y="325.049" width="2.85714" height="16.9756" rx="1.42857" fill="#D9D9D9"/>
</svg>
