<svg width="275" height="359" viewBox="0 0 275 359" fill="none" xmlns="http://www.w3.org/2000/svg">
<rect width="275" height="358.417" rx="15" fill="#F0F0F0"/>
<rect x="205.333" y="11" width="47.1429" height="14.6667" rx="7.33333" fill="#D9D9D9"/>
<rect x="22.9167" y="11" width="47.1429" height="14.6667" rx="7.33333" fill="#D9D9D9"/>
<rect x="22.9167" y="99" width="229.167" height="91.6667" rx="15" fill="#385ADC"/>
<rect x="22.9167" y="204.417" width="229.167" height="59.5833" rx="15" fill="#D9D9D9"/>
<rect x="76.0833" y="39.4166" width="121.917" height="45.8333" rx="15" fill="#D9D9D9"/>
<rect x="22.9167" y="277.75" width="229.167" height="59.5833" rx="15" fill="#D9D9D9"/>
<rect x="39.4167" y="123.75" width="41.25" height="41.25" rx="5" fill="#D9D9D9"/>
<path d="M68.0625 145.952V141.701C68.0606 139.807 67.3884 137.975 66.1651 136.529C64.9417 135.083 63.2461 134.116 61.3785 133.801V132.344C61.3785 131.989 61.2376 131.649 60.9869 131.398C60.7362 131.148 60.3962 131.007 60.0417 131.007C59.6871 131.007 59.3471 131.148 59.0964 131.398C58.8457 131.649 58.7049 131.989 58.7049 132.344V133.801C56.8373 134.116 55.1416 135.083 53.9183 136.529C52.6949 137.975 52.0228 139.807 52.0208 141.701V145.952C51.2407 146.228 50.5651 146.738 50.0864 147.413C49.6077 148.088 49.3496 148.895 49.3472 149.722V152.396C49.3472 152.75 49.4881 153.09 49.7388 153.341C49.9895 153.592 50.3295 153.733 50.684 153.733H54.8816C55.1894 154.865 55.8615 155.865 56.794 156.578C57.7266 157.291 58.8678 157.677 60.0417 157.677C61.2155 157.677 62.3568 157.291 63.2893 156.578C64.2219 155.865 64.8939 154.865 65.2017 153.733H69.3993C69.7539 153.733 70.0939 153.592 70.3446 153.341C70.5953 153.09 70.7361 152.75 70.7361 152.396V149.722C70.7338 148.895 70.4756 148.088 69.9969 147.413C69.5183 146.738 68.8426 146.228 68.0625 145.952ZM54.6945 141.701C54.6945 140.283 55.2578 138.923 56.2606 137.92C57.2634 136.917 58.6235 136.354 60.0417 136.354C61.4598 136.354 62.8199 136.917 63.8227 137.92C64.8255 138.923 65.3889 140.283 65.3889 141.701V145.712H54.6945V141.701ZM60.0417 155.069C59.5751 155.067 59.1174 154.942 58.714 154.707C58.3106 154.473 57.9757 154.137 57.7424 153.733H62.341C62.1077 154.137 61.7727 154.473 61.3693 154.707C60.966 154.942 60.5083 155.067 60.0417 155.069ZM68.0625 151.059H52.0208V149.722C52.0208 149.368 52.1617 149.028 52.4124 148.777C52.6631 148.526 53.0031 148.385 53.3576 148.385H66.7257C67.0802 148.385 67.4203 148.526 67.671 148.777C67.9217 149.028 68.0625 149.368 68.0625 149.722V151.059Z" fill="#385ADC"/>
<rect x="94.4167" y="123.75" width="141.429" height="24.5536" rx="5" fill="#D9D9D9"/>
<rect x="94.4167" y="154.196" width="141.429" height="10.8036" rx="5" fill="#D9D9D9"/>
</svg>
